<svg width="105" height="117" viewBox="0 0 105 117" fill="none" xmlns="http://www.w3.org/2000/svg">
<path d="M104.788 0.0771484H0.811035L9.98545 104.054L52.7994 116.286L95.6133 104.054L104.788 0.0771484Z" fill="#006DD8"/>
<path d="M52.7993 9.25146V106.806L87.0505 97.02L94.6958 9.25146H52.7993Z" fill="#006DD8"/>
<path d="M80.6284 24.5422H52.7993V36.7748H67.7842L66.8668 49.0073H52.7993V61.2399H66.2551L65.3377 75.0015L52.7993 79.2829V92.1271L76.9586 84.1759L79.0993 49.0073L80.6284 24.5422Z" fill="#273136"/>
<path d="M52.7994 24.5422V36.7748H25.582L24.6646 24.5422H52.7994ZM38.732 49.0073L39.3436 61.2399H52.7994V49.0073H38.732ZM39.9552 67.3562H27.7227L28.6401 84.1759L52.7994 92.1271V79.2829L40.2611 75.0015L39.9552 67.3562Z" fill="#273136"/>
</svg>
