<svg width="104" height="105" viewBox="0 0 104 105" fill="none" xmlns="http://www.w3.org/2000/svg">
<path d="M101.28 45.488L58.597 2.80539C56.7869 0.986475 54.4029 0.0770264 52.0189 0.0770264C49.6349 0.0770264 47.2509 0.986475 45.4408 2.80539L36.9996 11.2466L47.4451 21.6921C50.9152 19.6524 55.436 20.0939 58.4116 23.0695C61.3872 26.0451 61.8198 30.5659 59.7802 34.0271L70.0491 44.296C73.5192 42.2564 78.04 42.6979 81.0156 45.6735C84.5474 49.2054 84.5474 54.927 81.0156 58.4589C77.4837 61.9907 71.7621 61.9907 68.2302 58.4589C65.2546 55.4832 64.8131 50.9625 66.8528 47.4924L56.5838 37.2235C55.851 37.6562 55.0828 37.974 54.2793 38.1771V65.9464C58.1732 66.953 61.0605 70.4584 61.0605 74.6702C61.0605 79.6678 57.0165 83.7118 52.0189 83.7118C47.0213 83.7118 42.9773 79.6678 42.9773 74.6702C42.9773 70.4584 45.8646 66.953 49.7585 65.9465V38.1771C48.2486 37.7886 46.8094 37.0381 45.6262 35.8549C42.6506 32.8793 42.218 28.3585 44.2576 24.8973L33.8033 14.443L2.75816 45.4881C-0.879674 49.1171 -0.879674 55.0153 2.75816 58.6443L45.4408 101.327C47.2509 103.146 49.6349 104.055 52.0189 104.055C54.4029 104.055 56.787 103.146 58.597 101.327L101.28 58.6443C104.918 55.0153 104.918 49.117 101.28 45.488Z" fill="#006DD8"/>
</svg>
