<svg width="109" height="122" viewBox="0 0 109 122" fill="none" xmlns="http://www.w3.org/2000/svg">
<path d="M108.313 1.28262C107.818 0.735722 107.106 0.426147 106.363 0.426147H3.15268C2.40972 0.426147 1.69771 0.735722 1.20241 1.28262C0.696768 1.82952 0.449113 2.56218 0.521362 3.30515L9.81872 107.454C9.9116 108.548 10.6752 109.456 11.7277 109.766L54.0251 121.839C54.2521 121.911 54.4998 121.942 54.7474 121.942C54.9951 121.942 55.2324 121.911 55.4697 121.839L97.798 109.766C98.8506 109.456 99.6039 108.548 99.7071 107.454L108.994 3.30515C109.066 2.56218 108.819 1.82952 108.313 1.28262ZM86.055 37.1925H36.359L37.5457 50.6381H84.8581L81.3083 90.3764L54.7371 98.4045L54.4791 98.3219L28.2174 90.366L26.783 74.1756H39.6508L40.208 80.4598L54.8918 83.5349L69.3074 80.4598L70.8449 63.4542H25.8234L22.3252 24.3454H87.2004L86.055 37.1925Z" fill="#006DD8"/>
</svg>
