<svg width="101" height="100" viewBox="0 0 101 100" fill="none" xmlns="http://www.w3.org/2000/svg">
<path d="M0.63916 99.7934V0.337402H100.095V99.7934H0.63916Z" fill="#006DD8"/>
<path d="M65.6668 74.7829C67.5785 77.8882 69.6561 80.8636 74.057 80.8636C77.7534 80.8636 79.6928 79.0264 79.6928 76.4847C79.6928 73.443 77.6871 72.3628 73.6205 70.592L71.391 69.6416C64.9568 66.9121 60.6774 63.4919 60.6774 56.2676C60.6774 49.6095 65.7745 44.5428 73.7393 44.5428C79.411 44.5428 83.4859 46.5071 86.4254 51.6511L79.4801 56.0907C77.9523 53.3612 76.3003 52.2866 73.7393 52.2866C71.1258 52.2866 69.471 53.9359 69.471 56.0907C69.471 58.754 71.1286 59.8314 74.9548 61.4807L77.1843 62.4311C84.7678 65.6606 89.0444 68.9592 89.0444 76.3742C89.0444 84.3639 82.7345 88.7427 74.2642 88.7427C65.9789 88.7427 61.2741 84.5849 58.6551 79.438L65.6668 74.7829ZM33.6585 75.0095C35.0564 77.5125 37.1809 79.438 40.2364 79.438C43.1593 79.438 44.8418 78.2832 44.8418 73.7939V44.54H54.0497V75.2084C54.0497 84.5103 48.6543 88.7427 40.7751 88.7427C33.6558 88.7427 28.5172 83.9191 26.4231 79.438L33.6585 75.0095Z" fill="#273136"/>
</svg>
